<svg width="523" height="416" viewBox="0 0 523 416" fill="none" xmlns="http://www.w3.org/2000/svg">
<path d="M16.5 375.5L85.7842 404.5L117.889 343.5L60.5 318.5L16.5 375.5Z" fill="#636566"/>
<path d="M437.5 400.5L505.784 375.5L461.784 318.5L405.327 343.094L437.5 400.5Z" fill="#636566"/>
<path d="M461.784 318.5L497.284 309.5L448.784 250.5L375.544 274L390.143 316L405.327 343.094L461.784 318.5Z" fill="#DCDCDC"/>
<path d="M117.889 343.5L136.5 309.5L146.74 274L73.5 250.5L25 309.5L60.5 318.5L117.889 343.5Z" fill="#DCDCDC"/>
<path d="M146.74 274L166.5 205.5L117.889 176L104 171.112L71 159.5H31L19.5 236.5L73.5 250.5L146.74 274Z" fill="#DCDCDC"/>
<path d="M117.889 343.5L85.7842 404.5C221.932 347.594 298.7 342.809 437.5 400.5L405.327 343.094L390.143 316L375.544 274L355.816 205.61C282.044 217.474 240.471 217.431 166.5 205.5L146.74 274L136.5 309.5L117.889 343.5Z" fill="#636566"/>
<path d="M306 122C306 146.853 285.853 167 261 167C236.147 167 216 146.853 216 122C216 113.195 218.529 104.981 222.9 98.044C230.866 85.4005 244.952 77 261 77C276.533 77 290.228 84.87 298.315 96.8401C303.167 104.022 306 112.68 306 122Z" fill="#8B0800"/>
<path d="M375.544 274L448.784 250.5L502.784 236.5L491.284 159.5H451.284L418.284 171.112L404.395 176L355.784 205.5L355.816 205.61L375.544 274Z" fill="#DCDCDC"/>
<path d="M299.384 98.5C316.498 97.1694 328.426 96.074 342.5 91C350.621 85.7407 356.024 81.8381 361.923 76.2568C284.737 18.5692 240.746 17.0814 160.883 74.7306C167.429 81.1568 173.048 85.2744 181.889 91C195.964 96.074 205.275 97.1694 222.389 98.5C222.56 98.3472 222.73 98.1952 222.9 98.044C230.866 85.4005 244.952 77 261 77C276.533 77 290.228 84.87 298.315 96.8401C298.683 97.385 299.039 97.9384 299.384 98.5Z" fill="#DCDCDC"/>
<path fill-rule="evenodd" clip-rule="evenodd" d="M90.3895 12.5C98.3334 59.0696 110.696 88.8886 130.706 108.972C137.226 115.516 144.348 126.367 152.314 138.501C170.396 166.048 192.82 200.209 222.389 205.61H296.263C326.34 200.116 351.422 164.867 371.189 137.089C379.415 125.528 386.721 115.261 393.083 108.972C413.398 88.8886 426.056 59.0696 434 12.5C423.261 9.25066 417.239 9.69798 406.5 12.5C392.055 20.6054 388.695 25.4021 383.5 34C380.39 48.6393 377.077 56.0706 369.5 68.5C366.754 71.4899 364.298 74.0094 361.923 76.2568C356.024 81.8381 350.621 85.7407 342.5 91C328.426 96.074 316.498 97.1694 299.384 98.5C303.581 105.34 306 113.387 306 122C306 146.853 285.853 167 261 167C236.147 167 216 146.853 216 122C216 113.195 218.529 104.981 222.9 98.044C222.73 98.1952 222.56 98.3472 222.389 98.5C205.275 97.1694 195.964 96.074 181.889 91C173.048 85.2744 167.429 81.1568 160.883 74.7306C158.996 72.8771 157.031 70.8316 154.889 68.5C147.312 56.0706 144 48.6393 140.889 34C135.694 25.4021 132.335 20.6054 117.889 12.5C107.15 9.69798 101.129 9.25065 90.3895 12.5Z" fill="#FBB500"/>
<path d="M117.889 176L166.5 205.5C240.471 217.431 282.044 217.474 355.816 205.61L355.784 205.5L404.395 176L418.284 171.112L404.395 132.5L393.083 108.972C386.721 115.261 379.415 125.528 371.189 137.089C351.422 164.867 326.34 200.116 296.263 205.61H222.389C192.82 200.209 170.396 166.048 152.314 138.501C144.348 126.367 137.226 115.516 130.706 108.972L117.889 129.5L104 171.112L117.889 176Z" fill="#DCDCDC"/>
<path d="M85.7842 404.5L16.5 375.5L60.5 318.5M85.7842 404.5L117.889 343.5M85.7842 404.5C221.932 347.594 298.7 342.809 437.5 400.5M166.5 205.5L146.74 274M166.5 205.5L117.889 176M166.5 205.5C240.471 217.431 282.044 217.474 355.816 205.61M356.5 205.5C356.272 205.537 356.044 205.574 355.816 205.61M437.5 400.5L505.784 375.5L461.784 318.5M437.5 400.5L405.327 343.094M386.5 309.5L405.327 343.094M60.5 318.5L117.889 343.5M60.5 318.5L25 309.5L73.5 250.5M117.889 343.5L136.5 309.5L146.74 274M73.5 250.5L146.74 274M73.5 250.5L19.5 236.5L31 159.5H71M117.889 176C113.649 174.508 108.859 172.822 104 171.112M117.889 176L104 171.112M71 159.5C71 159.5 87.8755 165.438 104 171.112M71 159.5L104 171.112M461.784 318.5L497.284 309.5L448.784 250.5M461.784 318.5L405.327 343.094M404.395 343.5L405.327 343.094M448.784 250.5L375.544 274M448.784 250.5L502.784 236.5L491.284 159.5H451.284L418.284 171.112M375.544 274L390.143 316L405.327 343.094M375.544 274L355.816 205.61M104 171.112L117.889 129.5L130.706 108.972M418.284 171.112L404.395 176L355.784 205.5L355.816 205.61M418.284 171.112L404.395 132.5L393.083 108.972M299.384 98.5C316.498 97.1694 328.426 96.074 342.5 91C350.621 85.7407 356.024 81.8381 361.923 76.2568M299.384 98.5C303.581 105.34 306 113.387 306 122M299.384 98.5C268.891 70.725 252.083 72.0373 222.9 98.044M299.384 98.5C299.039 97.9384 298.683 97.385 298.315 96.8401M306 122C306 146.853 285.853 167 261 167C236.147 167 216 146.853 216 122C216 113.195 218.529 104.981 222.9 98.044M306 122C306 112.68 303.167 104.022 298.315 96.8401M160.883 74.7306C158.996 72.8771 157.031 70.8316 154.889 68.5C147.312 56.0706 144 48.6393 140.889 34C135.694 25.4021 132.335 20.6054 117.889 12.5C107.15 9.69798 101.129 9.25065 90.3895 12.5C98.3334 59.0696 110.696 88.8886 130.706 108.972M160.883 74.7306C167.429 81.1568 173.048 85.2744 181.889 91C195.964 96.074 205.275 97.1694 222.389 98.5C222.56 98.3472 222.73 98.1952 222.9 98.044M160.883 74.7306C240.746 17.0814 284.737 18.5692 361.923 76.2568M361.923 76.2568C364.298 74.0094 366.754 71.4899 369.5 68.5C377.077 56.0706 380.39 48.6393 383.5 34C388.695 25.4021 392.055 20.6054 406.5 12.5C417.239 9.69798 423.261 9.25066 434 12.5C426.056 59.0696 413.398 88.8886 393.083 108.972M130.706 108.972C137.226 115.516 144.348 126.367 152.314 138.501C170.396 166.048 192.82 200.209 222.389 205.61H296.263C326.34 200.116 351.422 164.867 371.189 137.089C379.415 125.528 386.721 115.261 393.083 108.972M222.9 98.044C230.866 85.4005 244.952 77 261 77C276.533 77 290.228 84.87 298.315 96.8401" stroke="black" stroke-width="20"/>
</svg>
